<svg id="Layer_1" enable-background="new 0 0 512 512" height="512" viewBox="0 0 512 512" width="512" xmlns="http://www.w3.org/2000/svg"><g><path d="m512 23.714h-512v30h15.97v322.473h225.03v37.796c-13.893 5.869-23.667 19.633-23.667 35.638 0 21.321 17.346 38.667 38.667 38.667s38.667-17.346 38.667-38.667c0-16.005-9.774-29.768-23.667-35.638v-37.796h225.03v-322.473h15.97zm-256 434.572c-4.779 0-8.667-3.888-8.667-8.667s3.888-8.667 8.667-8.667 8.667 3.888 8.667 8.667-3.888 8.667-8.667 8.667zm210.03-112.099h-420.06v-292.473h420.06z"/><path d="m300.333 304.956h135.033v-150.008h-135.033zm30-120.008h75.033v90.007h-75.033z"/><path d="m70.972 274.956h204.358v30h-204.358z"/><path d="m70.972 214.952h204.358v30h-204.358z"/><path d="m70.972 154.948h204.358v30h-204.358z"/><path d="m70.972 94.944h299.378v30h-299.378z"/></g></svg>